#!OML:ASF H:\Terrain\Patient Classification 1\Terrain2\Thursday\justin.ASF
:FULLY-SPECIFIED
:DEGREES
3311
root -0.788318 23.1176 0.395172 1252.96 -2.69643 -170.666
lowerback 10.3865 0.505481 8.17521
upperback 3.26872 0.959704 4.86678
thorax -2.3103 0.170882 0.380431
lowerneck -11.3207 0.0096471 -10.6403
upperneck 38.9305 -4.82705 6.19378
head 16.1302 -4.45683 3.34435
rclavicle -2.43511e-015 -5.56597e-014
rhumerus -30.2076 -7.48816 -76.8384
rradius 39.8223
rwrist -17.1079
rhand -24.4163 11.4125
rfingers 7.12502
rthumb 2.07527 -18.5572
lclavicle -2.43511e-015 -5.56597e-014
lhumerus -32.6793 5.37561 83.8929
lradius 28.929
lwrist 2.13982
lhand -22.1678 24.3817
lfingers 7.12502
lthumb 4.2467 54.3191
rfemur 9.32569 -3.9795 35.2583
rtibia 27.5225
rfoot -24.6791 -3.52336
rtoes 13.1818
lfemur -39.2158 3.13987 -8.54315
ltibia 54.9893
lfoot 13.0157 -8.92324
ltoes -4.65792
3312
root -0.792083 23.0758 0.275362 1252.8 -2.57294 -170.719
lowerback 10.174 0.536246 8.00685
upperback 3.37483 0.949767 4.83321
thorax -2.08618 0.175183 0.43949
lowerneck -11.2309 0.0459942 -10.7242
upperneck 38.9907 -4.88247 6.37027
head 16.1533 -4.48813 3.42759
rclavicle 1.11816e-014 1.35174e-014
rhumerus -30.2143 -7.50557 -76.9506
rradius 39.9021
rwrist -16.9713
rhand -24.248 11.484
rfingers 7.12502
rthumb 2.23783 -18.484
lclavicle 1.11816e-014 1.35174e-014
lhumerus -32.7376 5.263 84.0504
lradius 28.8191
lwrist 3.43439
lhand -23.4952 24.36
lfingers 7.12502
lthumb 2.96488 54.3191
rfemur 9.68301 -4.04355 35.1468
rtibia 28.0507
rfoot -25.4385 -3.29994
rtoes 13.1567
lfemur -38.5575 3.06123 -8.64694
ltibia 52.4534
lfoot 15.2785 -8.16773
ltoes -2.91338
3313
root -0.801766 23.0314 0.15884 1252.59 -2.38883 -170.737
lowerback 10.0465 0.595801 7.99273
upperback 3.5594 0.984659 4.77899
thorax -1.81922 0.199316 0.386837
lowerneck -11.3067 -0.00572427 -10.7259
upperneck 38.972 -4.96652 6.4348
head 16.1757 -4.50856 3.4426
rclavicle -2.36554e-014 -5.56597e-014
rhumerus -30.0921 -7.63259 -77.0712
rradius 40.0593
rwrist -17.1759
rhand -23.7219 11.5151
rfingers 7.12502
rthumb 2.74589 -18.4469
lclavicle -2.36554e-014 -5.56597e-014
lhumerus -32.7482 5.16544 84.0848
lradius 28.7775
lwrist 4.00293
lhand -24.0108 24.3944
lfingers 7.12502
lthumb 2.46695 54.3599
rfemur 10.0917 -4.16619 35.0062
rtibia 28.6276
rfoot -26.1124 -3.08209
rtoes 13.2966
lfemur -37.8346 2.91359 -8.67969
ltibia 49.9095
lfoot 17.6848 -7.39177
ltoes -0.360531
3314
root -0.812473 22.988 0.0419431 1252.38 -2.21788 -170.812
lowerback 10.0295 0.615919 7.90251
upperback 3.67739 0.9827 4.74669
thorax -1.68772 0.200922 0.403197
lowerneck -11.6082 0.0199215 -10.6096
upperneck 39.2691 -4.92517 6.25332
head 16.3937 -4.51547 3.34664
rclavicle -1.80397e-014 -1.02573e-013
rhumerus -30.1207 -7.55957 -77.1554
rradius 40.1927
rwrist -17.2168
rhand -23.3807 11.114
rfingers 7.12502
rthumb 3.07548 -18.8436
lclavicle -1.80397e-014 -1.02573e-013
lhumerus -32.9195 5.37945 83.9807
lradius 28.7264
lwrist 3.74614
lhand -23.6801 23.9604
lfingers 7.12502
lthumb 2.78628 53.922
rfemur 10.5519 -4.4429 34.7581
rtibia 29.2106
rfoot -26.5991 -3.07096
rtoes 12.0829
lfemur -37.0498 2.76793 -8.78553
ltibia 47.3906
lfoot 19.937 -6.46252
ltoes 1.84728
3315
root -0.822625 22.9464 -0.0830591 1252.27 -2.02939 -171.33
lowerback 9.86435 0.758335 7.46718
upperback 3.81874 1.12331 4.50935
thorax -1.45171 0.290968 0.381517
lowerneck -11.8976 -0.0289687 -10.4423
upperneck 39.4938 -5.05497 6.23396
head 16.5987 -4.55439 3.28526
rclavicle -1.57537e-014 -7.39479e-014
rhumerus -30.1888 -7.81035 -77.2608
rradius 40.3347
rwrist -17.0534
rhand -23.4279 10.9778
rfingers 7.12502
rthumb 3.02989 -18.9804
lclavicle -1.57537e-014 -7.39479e-014
lhumerus -32.8191 5.65805 83.7174
lradius 28.5448
lwrist 2.83483
lhand -22.2104 23.2964
lfingers 7.12502
lthumb 4.20559 53.2346
rfemur 11.0058 -4.60598 34.0382
rtibia 29.7836
rfoot -27.2136 -3.15175
rtoes 10.6776
lfemur -36.1939 2.59088 -9.37218
ltibia 44.9309
lfoot 21.727 -5.98734
ltoes 2.17118
3316
root -0.830355 22.8998 -0.213356 1252.13 -1.90718 -171.764
lowerback 9.60319 0.73414 6.83909
upperback 3.81618 1.03285 4.44585
thorax -1.33306 0.257154 0.673833
lowerneck -11.4637 0.146304 -10.5009
upperneck 39.4471 -4.86703 6.21248
head 16.4384 -4.51828 3.31593
rclavicle -2.16675e-014 -7.15625e-014
rhumerus -30.5391 -7.40724 -77.3624
rradius 40.5244
rwrist -17.1188
rhand -23.4843 11.2564
rfingers 7.12502
rthumb 2.97542 -18.7026
lclavicle -2.16675e-014 -7.15625e-014
lhumerus -33.3204 6.47726 83.4112
lradius 28.5758
lwrist 1.87529
lhand -20.8612 24.0243
lfingers 7.12502
lthumb 5.5084 53.9327
rfemur 11.5259 -4.78945 33.395
rtibia 30.3227
rfoot -27.9656 -3.0617
rtoes 9.63911
lfemur -35.3822 2.23817 -9.80851
ltibia 42.5909
lfoot 23.3438 -5.65867
ltoes 2.24302
3317
root -0.840333 22.8435 -0.343339 1251.98 -1.68847 -171.696
lowerback 9.3088 0.73833 6.8632
upperback 3.91307 0.997263 4.43999
thorax -1.06998 0.24525 0.659882
lowerneck -11.2765 0.191348 -10.5439
upperneck 39.4353 -4.84117 6.19807
head 16.3818 -4.53187 3.31974
rclavicle 1.22253e-014 2.78299e-014
rhumerus -30.7139 -7.22925 -77.5158
rradius 40.6774
rwrist -17.3028
rhand -23.2418 11.6531
rfingers 7.12502
rthumb 3.20956 -18.3025
lclavicle 1.22253e-014 2.78299e-014
lhumerus -33.6585 6.35145 83.4726
lradius 28.5255
lwrist 2.97618
lhand -22.1372 24.0139
lfingers 7.12502
lthumb 4.27631 53.9507
rfemur 12.0786 -5.07219 33.2454
rtibia 30.8393
rfoot -28.5519 -2.89538
rtoes 7.62088
lfemur -34.6164 1.85292 -9.6155
ltibia 40.3954
lfoot 25.0846 -5.03754
ltoes 3.22432
3318
root -0.852438 22.7784 -0.471905 1251.84 -1.25873 -171.475
lowerback 9.04207 0.8115 7.04401
upperback 4.00661 1.05968 4.48939
thorax -0.817743 0.278494 0.607351
lowerneck -11.0901 0.265807 -10.5716
upperneck 39.5112 -4.82174 6.20539
head 16.3728 -4.55465 3.32902
rclavicle -2.10215e-014 -9.42239e-014
rhumerus -30.8659 -7.12434 -77.6224
rradius 40.9303
rwrist -17.5191
rhand -22.881 11.2602
rfingers 7.12502
rthumb 3.55801 -18.6899
lclavicle -2.10215e-014 -9.42239e-014
lhumerus -33.8859 6.25708 83.4907
lradius 28.3554
lwrist 3.65714
lhand -22.6343 23.191
lfingers 7.12502
lthumb 3.79622 53.1369
rfemur 12.5523 -5.13694 33.3037
rtibia 31.3798
rfoot -28.9393 -2.63973
rtoes 6.50783
lfemur -33.826 1.60437 -9.18287
ltibia 38.3577
lfoot 26.7835 -4.51262
ltoes 4.0358
3319
root -0.863414 22.7225 -0.602576 1251.69 -0.867605 -171.329
lowerback 8.84171 0.885201 7.12808
upperback 4.0776 1.12863 4.51395
thorax -0.627739 0.315338 0.582088
lowerneck -11.1363 0.388214 -10.4495
upperneck 39.6901 -4.70384 6.15079
head 16.4581 -4.51735 3.30081
rclavicle -1.89839e-014 1.98785e-014
rhumerus -31.0631 -7.1444 -77.7303
rradius 41.1621
rwrist -17.6241
rhand -22.672 10.4778
rfingers 7.12502
rthumb 3.75984 -19.4688
lclavicle -1.89839e-014 1.98785e-014
lhumerus -34.0607 6.30633 83.5005
lradius 28.0852
lwrist 4.02167
lhand -22.4364 22.2894
lfingers 7.12502
lthumb 3.98739 52.2319
rfemur 12.9319 -5.01655 33.3268
rtibia 32.0334
rfoot -29.4234 -2.07029
rtoes 7.17617
lfemur -33.0511 1.36941 -8.83752
ltibia 36.4659
lfoot 28.0495 -4.30527
ltoes 3.64566
3320
root -0.875885 22.666 -0.73133 1251.65 -0.5281 -171.217
lowerback 8.6283 0.952873 7.20471
upperback 4.06653 1.20624 4.51258
thorax -0.516033 0.359155 0.533435
lowerneck -11.1699 0.478334 -10.5037
upperneck 39.8469 -4.69292 6.34459
head 16.5552 -4.52107 3.39827
rclavicle -7.70291e-015 -7.4743e-014
rhumerus -31.3329 -7.17639 -77.8392
rradius 41.2277
rwrist -17.5075
rhand -22.7416 10.4459
rfingers 7.12502
rthumb 3.69261 -19.5019
lclavicle -7.70291e-015 -7.4743e-014
lhumerus -34.314 6.08462 83.6399
lradius 27.7654
lwrist 5.20865
lhand -22.5617 19.3898
lfingers 7.12502
lthumb 3.86635 49.3344
rfemur 13.1683 -4.92766 33.322
rtibia 32.8125
rfoot -29.9671 -1.97238
rtoes 5.51478
lfemur -32.4624 1.02702 -8.52262
ltibia 34.7043
lfoot 29.0566 -4.12617
ltoes 2.62492
3321
root -0.889695 22.5903 -0.860507 1251.68 -0.127481 -171.131
lowerback 8.39183 1.02512 7.23895
upperback 4.01172 1.29286 4.51772
thorax -0.43844 0.407684 0.514725
lowerneck -11.0436 0.549639 -10.7891
upperneck 39.9599 -4.78996 6.76586
head 16.6163 -4.58732 3.62166
rclavicle -2.98177e-015 -1.39149e-014
rhumerus -31.6373 -7.12434 -77.9153
rradius 41.2719
rwrist -17.4354
rhand -22.9405 10.7489
rfingers 7.12502
rthumb 3.50051 -19.2021
lclavicle -2.98177e-015 -1.39149e-014
lhumerus -34.6567 6.19777 83.5822
lradius 27.5362
lwrist 5.6653
lhand -22.5535 17.4651
lfingers 7.12502
lthumb 3.87424 47.4096
rfemur 13.3303 -4.82306 33.323
rtibia 33.698
rfoot -30.3954 -2.37397
rtoes 2.47307
lfemur -31.925 0.638061 -8.18606
ltibia 33.0368
lfoot 29.8576 -3.99491
ltoes 1.3588
3322
root -0.904511 22.5172 -1.00077 1251.58 0.359194 -170.912
lowerback 8.09205 1.13365 7.45359
upperback 4.06749 1.40636 4.54967
thorax -0.202091 0.469678 0.424752
lowerneck -10.9387 0.61398 -10.7551
upperneck 40.0064 -4.76577 6.78563
head 16.61 -4.58768 3.62672
rclavicle 9.26834e-015 1.43125e-014
rhumerus -31.8512 -7.03744 -78.0051
rradius 41.3097
rwrist -17.5965
rhand -22.9723 11.108
rfingers 7.12502
rthumb 3.46983 -18.8435
lclavicle 9.26834e-015 1.43125e-014
lhumerus -34.8842 6.75327 83.274
lradius 27.2519
lwrist 4.77164
lhand -22.3986 18.1773
lfingers 7.12502
lthumb 4.02389 48.119
rfemur 13.5888 -4.63889 33.4434
rtibia 34.7312
rfoot -30.9119 -2.24691
rtoes 1.45057
lfemur -31.0722 0.365019 -7.69455
ltibia 31.3802
lfoot 30.4744 -3.92464
ltoes 1.40808
